<svg width="27" height="23" viewBox="0 0 27 23" fill="none" xmlns="http://www.w3.org/2000/svg">
<path fill-rule="evenodd" clip-rule="evenodd" d="M23.3367 6.13318C25.5399 7.85024 26.6256 10.2248 26.6652 12.9593C26.6914 14.7697 26.3718 16.5491 25.5517 18.1127C25.1394 18.8148 24.6189 19.4687 23.9757 20.0559C21.8985 21.9518 19.1113 22.624 16.2648 22.6647C13.4183 22.7054 10.6127 22.1132 8.48155 20.2774C7.54044 19.4667 6.84535 18.5139 6.35442 17.4721C5.30299 17.5349 4.22527 17.2306 3.33119 16.5344L3.32997 16.5335C1.12672 14.8164 0.0410695 12.4418 0.00148101 9.70737C-0.0247292 7.89697 0.295015 6.11719 1.11513 4.55366C1.52743 3.85155 2.04773 3.19796 2.69101 2.61078C4.76812 0.714819 7.55539 0.0426451 10.4019 0.00194329C13.2484 -0.0387585 16.054 0.553444 18.1851 2.38923C19.1262 3.19992 19.8213 4.15272 20.3122 5.19455C21.3637 5.13177 22.4414 5.43607 23.3355 6.13223L23.3367 6.13318ZM4.78211 9.57433C4.78211 10.8412 5.18022 11.7282 6.07362 12.4512C6.47454 12.7757 6.53808 13.3674 6.2138 13.7706C5.88952 14.1738 5.3017 14.2366 4.89986 13.9112C3.56348 12.8282 2.91305 11.4104 2.91305 9.57433C2.91305 5.12302 5.43254 2.86596 10.4052 2.86596C15.3778 2.86596 17.8982 5.12302 17.8982 9.57433C17.8982 11.416 17.2478 12.8347 15.9095 13.9122C15.7376 14.051 15.531 14.1185 15.3254 14.1185C15.0526 14.1185 14.7806 13.9984 14.5965 13.7678C14.2732 13.3636 14.3377 12.7729 14.7404 12.4493C15.632 11.7311 16.0301 10.844 16.0301 9.57433C16.0301 7.18411 15.3619 4.74138 10.4061 4.74138C5.45029 4.74138 4.78211 7.18505 4.78211 9.57433ZM20.1719 8.84104C20.4962 8.43876 21.084 8.37406 21.4858 8.70039V8.69945C22.8222 9.7825 23.4727 11.2003 23.4727 13.0364C23.4727 17.4877 20.9522 19.7447 15.9796 19.7447C11.007 19.7447 8.48658 17.4877 8.48658 13.0364C8.48658 11.1947 9.13701 9.77594 10.4752 8.69851C10.8771 8.37406 11.4658 8.43783 11.7892 8.84292C12.1125 9.24707 12.0481 9.83783 11.6453 10.1613C10.7537 10.8796 10.3556 11.7667 10.3556 13.0364C10.3556 15.4266 11.0238 17.8693 15.9796 17.8693C20.9354 17.8693 21.6036 15.4256 21.6036 13.0364C21.6036 11.7695 21.2055 10.8824 20.3121 10.1595C19.9112 9.83501 19.8476 9.24426 20.1719 8.84104Z" fill="#2C46B1"/>
</svg>
